<?xml version="1.0" encoding="utf-8"?>
<!-- Generator: Adobe Illustrator 25.4.1, SVG Export Plug-In . SVG Version: 6.00 Build 0)  -->
<svg version="1.0" id="图层_1" xmlns="http://www.w3.org/2000/svg" xmlns:xlink="http://www.w3.org/1999/xlink" x="0px" y="0px"
	 viewBox="0 0 100 100" enable-background="new 0 0 100 100" xml:space="preserve">
<g>
	<g>
		<path d="M0,100C0,67,0,34.1,0,1.2C0,0.2,0.2,0,1.2,0c32.6,0,65.1,0,97.7,0c1,0,1.2,0.2,1.2,1.2c0,32.6,0,65.1,0,97.7
			c0,1-0.2,1.2-1.2,1.2C65.9,100,33,100,0,100z"/>
		<path fill="#FEFEFE" d="M67.8,28.8c3.9,1.5,5.1,3.3,5.1,7.3c0,2.2,0,4.4,0,6.6c0,3.9-1.3,5.8-4.9,7.1c0,0.3,0.3,0.3,0.5,0.4
			c2.8,1,4.4,3.2,4.4,6.2c0,8.1,0,16.3,0,24.4c0,6.2-4.4,10.7-10.6,10.7c-4.3,0.1-8.6,0-12.8,0c-3.8,0-7.6,0-11.4,0
			c-6.5,0-10.9-4.5-10.9-10.9c0-20.5,0-40.9,0-61.4c0-6.5,4.4-10.9,10.8-11c8,0,16.1,0,24.1,0c6.4,0,10.8,4.5,10.8,10.8
			c0,0.8,0,1.7,0,2.5C72.9,25.5,71.6,27.4,67.8,28.8z"/>
		<path d="M43.9,69.3c0-5.2,0-10.3,0-15.5c0-1.1,0.3-1.4,1.3-1.3c2.4,0.1,4.8,0,7.2,0c2.4,0,3.7,1.3,3.7,3.8c0,8.7,0,17.4,0,26.1
			c0,2.5-1.4,3.8-3.9,3.8c-2.4,0-4.8,0-7.2,0c-1,0-1.2-0.3-1.2-1.2C43.9,79.7,43.9,74.5,43.9,69.3z"/>
		<path d="M43.9,39.4c0-2.4,0-4.7,0-7c0-0.9,0.3-1.1,1.1-1.1c2.5,0.1,5.1,0,7.6,0c2.1,0,3.5,1.3,3.5,3.4c0.1,3.1,0.1,6.3,0,9.4
			c0,2.1-1.4,3.4-3.5,3.4c-2.5,0-5.1,0-7.6,0c-0.9,0-1.1-0.2-1.1-1.1C43.9,44.1,43.9,41.8,43.9,39.4z"/>
		<path d="M43.9,20.1c0-1.7,0-3.5,0-5.2c0-0.7,0.2-1,0.9-1c2.6,0,5.3,0,7.9,0c2,0,3.3,1.3,3.4,3.3c0.1,2,0.1,4,0,5.9
			c-0.1,2-1.4,3.2-3.4,3.3c-2.6,0.1-5.3,0-7.9,0c-0.7,0-1-0.2-1-1C43.9,23.6,43.9,21.9,43.9,20.1z"/>
	</g>
</g>
</svg>
